# xmcd CD database file
#
# Track frame offsets:
#	150
#	12376
#	26181
#	37548
#	51538
#	63379
#	74886
#	86426
#	99786
#	115398
#	126021
#	139160
#	151333
#	165888
#	178436
#	190072
#
# Disc length: 2715 seconds
#
# Revision: 0
# Processed by: cddbd v1.5.2PL0 Copyright (c) Steve Scherf et al.
# Submitted via: CDex 1.51
#
DISCID=d90a9910
DTITLE=The Hottentots Orchestra - Rhythm Of The Day
DYEAR=2007
DGENRE=Jazz
TTITLE0=My Pretty Girl
TTITLE1=Louisiana
TTITLE2=Hard-To-Get Gertie
TTITLE3=Apple Blossoms
TTITLE4=Gotta Feelin' For You
TTITLE5=Beatin' The Dog
TTITLE6=Imagination
TTITLE7=Free And Easy
TTITLE8=Rockin' Chair
TTITLE9=Sugar Foot Strut
TTITLE10=Bag O' Blues
TTITLE11=Turn On The Heat
TTITLE12=Rhythm Of The Day
TTITLE13=Doin' Things
TTITLE14=I'm Wondering Who
TTITLE15=Slow Riwer
EXTD=YEAR: 2007
EXTT0=
EXTT1=
EXTT2=
EXTT3=
EXTT4=
EXTT5=
EXTT6=
EXTT7=
EXTT8=
EXTT9=
EXTT10=
EXTT11=
EXTT12=
EXTT13=
EXTT14=
EXTT15=
PLAYORDER=
